<svg xmlns="http://www.w3.org/2000/svg" xmlns:xlink="http://www.w3.org/1999/xlink" width="350" zoomAndPan="magnify" viewBox="0 0 262.5 56.249996" height="75" preserveAspectRatio="xMidYMid meet" version="1.0"><defs><g/><clipPath id="06632fe251"><path d="M 1.480469 0 L 260.527344 0 L 260.527344 55.511719 L 1.480469 55.511719 Z M 1.480469 0 " clip-rule="nonzero"/></clipPath><clipPath id="5aae7f4626"><path d="M 26 10.621094 L 30 10.621094 L 30 14 L 26 14 Z M 26 10.621094 " clip-rule="nonzero"/></clipPath><clipPath id="176fd5d3bb"><path d="M 26 38 L 30 38 L 30 41.023438 L 26 41.023438 Z M 26 38 " clip-rule="nonzero"/></clipPath><clipPath id="6a14f6a60f"><path d="M 40 24 L 43.351562 24 L 43.351562 28 L 40 28 Z M 40 24 " clip-rule="nonzero"/></clipPath><clipPath id="b82044b3a1"><path d="M 12.949219 24 L 16 24 L 16 28 L 12.949219 28 Z M 12.949219 24 " clip-rule="nonzero"/></clipPath></defs><g clip-path="url(#06632fe251)"><path fill="#ffffff" d="M 1.480469 0 L 261.019531 0 L 261.019531 55.617188 L 1.480469 55.617188 Z M 1.480469 0 " fill-opacity="1" fill-rule="nonzero"/><path fill="#f8f9fa" d="M 1.480469 0 L 261.019531 0 L 261.019531 55.617188 L 1.480469 55.617188 Z M 1.480469 0 " fill-opacity="1" fill-rule="nonzero"/></g><g fill="#030712" fill-opacity="1"><g transform="translate(56.157265, 30.741753)"><g><path d="M 7.4375 -15.1875 C 9.894531 -15.1875 11.773438 -14.546875 13.078125 -13.265625 C 14.378906 -11.992188 15.03125 -10.101562 15.03125 -7.59375 C 15.03125 -5.082031 14.378906 -3.1875 13.078125 -1.90625 C 11.773438 -0.632812 9.894531 0 7.4375 0 L 1.96875 0 L 1.96875 -15.1875 Z M 7.265625 -2.515625 C 8.828125 -2.515625 9.992188 -2.914062 10.765625 -3.71875 C 11.546875 -4.519531 11.9375 -5.8125 11.9375 -7.59375 C 11.9375 -9.375 11.546875 -10.660156 10.765625 -11.453125 C 9.992188 -12.253906 8.828125 -12.65625 7.265625 -12.65625 L 4.96875 -12.65625 L 4.96875 -2.515625 Z M 7.265625 -2.515625 "/></g></g></g><g fill="#030712" fill-opacity="1"><g transform="translate(72.374756, 30.741753)"><g><path d="M 4.96875 -6.671875 L 4.96875 -2.515625 L 12.21875 -2.515625 L 12.21875 0 L 1.96875 0 L 1.96875 -15.1875 L 12.0625 -15.1875 L 12.0625 -12.671875 L 4.96875 -12.671875 L 4.96875 -9.109375 L 11.15625 -9.109375 L 11.15625 -6.671875 Z M 4.96875 -6.671875 "/></g></g></g><g fill="#030712" fill-opacity="1"><g transform="translate(85.41723, 30.741753)"><g><path d="M 9.015625 0 L 5.40625 0 L 0.265625 -15.1875 L 3.453125 -15.1875 L 7.140625 -3.859375 L 7.40625 -3.859375 L 11.03125 -15.1875 L 14.140625 -15.1875 Z M 9.015625 0 "/></g></g></g><g fill="#030712" fill-opacity="1"><g transform="translate(99.818944, 30.741753)"><g><path d="M 8.296875 0.21875 C 6.898438 0.21875 5.664062 -0.0703125 4.59375 -0.65625 C 3.53125 -1.238281 2.695312 -2.113281 2.09375 -3.28125 C 1.488281 -4.445312 1.1875 -5.882812 1.1875 -7.59375 C 1.1875 -9.300781 1.488281 -10.738281 2.09375 -11.90625 C 2.695312 -13.070312 3.53125 -13.945312 4.59375 -14.53125 C 5.664062 -15.113281 6.898438 -15.40625 8.296875 -15.40625 C 9.753906 -15.40625 10.992188 -15.117188 12.015625 -14.546875 C 13.035156 -13.972656 13.765625 -13.101562 14.203125 -11.9375 L 12.015625 -10.59375 L 11.75 -10.609375 C 11.425781 -11.390625 10.984375 -11.953125 10.421875 -12.296875 C 9.867188 -12.640625 9.160156 -12.8125 8.296875 -12.8125 C 7.035156 -12.8125 6.050781 -12.394531 5.34375 -11.5625 C 4.632812 -10.726562 4.28125 -9.40625 4.28125 -7.59375 C 4.28125 -5.78125 4.632812 -4.457031 5.34375 -3.625 C 6.050781 -2.789062 7.035156 -2.375 8.296875 -2.375 C 10.265625 -2.375 11.472656 -3.332031 11.921875 -5.25 L 12.1875 -5.25 L 14.390625 -4.09375 C 13.972656 -2.65625 13.257812 -1.578125 12.25 -0.859375 C 11.25 -0.140625 9.929688 0.21875 8.296875 0.21875 Z M 8.296875 0.21875 "/></g></g></g><g fill="#030712" fill-opacity="1"><g transform="translate(114.697947, 30.741753)"><g><path d="M 8.28125 0.21875 C 6.882812 0.21875 5.65625 -0.0625 4.59375 -0.625 C 3.53125 -1.195312 2.695312 -2.066406 2.09375 -3.234375 C 1.488281 -4.398438 1.1875 -5.851562 1.1875 -7.59375 C 1.1875 -9.332031 1.488281 -10.785156 2.09375 -11.953125 C 2.695312 -13.117188 3.53125 -13.984375 4.59375 -14.546875 C 5.65625 -15.117188 6.882812 -15.40625 8.28125 -15.40625 C 9.664062 -15.40625 10.890625 -15.117188 11.953125 -14.546875 C 13.015625 -13.984375 13.84375 -13.117188 14.4375 -11.953125 C 15.039062 -10.785156 15.34375 -9.332031 15.34375 -7.59375 C 15.34375 -5.851562 15.039062 -4.394531 14.4375 -3.21875 C 13.84375 -2.050781 13.015625 -1.1875 11.953125 -0.625 C 10.890625 -0.0625 9.664062 0.21875 8.28125 0.21875 Z M 8.28125 -2.390625 C 9.5625 -2.390625 10.539062 -2.800781 11.21875 -3.625 C 11.90625 -4.457031 12.25 -5.78125 12.25 -7.59375 C 12.25 -9.40625 11.90625 -10.722656 11.21875 -11.546875 C 10.539062 -12.378906 9.5625 -12.796875 8.28125 -12.796875 C 6.976562 -12.796875 5.984375 -12.378906 5.296875 -11.546875 C 4.617188 -10.722656 4.28125 -9.40625 4.28125 -7.59375 C 4.28125 -5.78125 4.617188 -4.457031 5.296875 -3.625 C 5.984375 -2.800781 6.976562 -2.390625 8.28125 -2.390625 Z M 8.28125 -2.390625 "/></g></g></g><g fill="#030712" fill-opacity="1"><g transform="translate(131.226715, 30.741753)"><g><path d="M 4.875 0 L 1.96875 0 L 1.96875 -15.1875 L 5.40625 -15.1875 L 11.5 -5.40625 L 11.78125 -5.4375 L 11.78125 -15.1875 L 14.65625 -15.1875 L 14.65625 0 L 11.59375 0 L 5.140625 -10.453125 L 4.875 -10.40625 Z M 4.875 0 "/></g></g></g><g fill="#030712" fill-opacity="1"><g transform="translate(147.859241, 30.741753)"><g><path d="M 4.875 0 L 1.96875 0 L 1.96875 -15.1875 L 5.40625 -15.1875 L 11.5 -5.40625 L 11.78125 -5.4375 L 11.78125 -15.1875 L 14.65625 -15.1875 L 14.65625 0 L 11.59375 0 L 5.140625 -10.453125 L 4.875 -10.40625 Z M 4.875 0 "/></g></g></g><g fill="#030712" fill-opacity="1"><g transform="translate(164.491767, 30.741753)"><g><path d="M 4.96875 -6.671875 L 4.96875 -2.515625 L 12.21875 -2.515625 L 12.21875 0 L 1.96875 0 L 1.96875 -15.1875 L 12.0625 -15.1875 L 12.0625 -12.671875 L 4.96875 -12.671875 L 4.96875 -9.109375 L 11.15625 -9.109375 L 11.15625 -6.671875 Z M 4.96875 -6.671875 "/></g></g></g><g fill="#030712" fill-opacity="1"><g transform="translate(177.53424, 30.741753)"><g><path d="M 8.296875 0.21875 C 6.898438 0.21875 5.664062 -0.0703125 4.59375 -0.65625 C 3.53125 -1.238281 2.695312 -2.113281 2.09375 -3.28125 C 1.488281 -4.445312 1.1875 -5.882812 1.1875 -7.59375 C 1.1875 -9.300781 1.488281 -10.738281 2.09375 -11.90625 C 2.695312 -13.070312 3.53125 -13.945312 4.59375 -14.53125 C 5.664062 -15.113281 6.898438 -15.40625 8.296875 -15.40625 C 9.753906 -15.40625 10.992188 -15.117188 12.015625 -14.546875 C 13.035156 -13.972656 13.765625 -13.101562 14.203125 -11.9375 L 12.015625 -10.59375 L 11.75 -10.609375 C 11.425781 -11.390625 10.984375 -11.953125 10.421875 -12.296875 C 9.867188 -12.640625 9.160156 -12.8125 8.296875 -12.8125 C 7.035156 -12.8125 6.050781 -12.394531 5.34375 -11.5625 C 4.632812 -10.726562 4.28125 -9.40625 4.28125 -7.59375 C 4.28125 -5.78125 4.632812 -4.457031 5.34375 -3.625 C 6.050781 -2.789062 7.035156 -2.375 8.296875 -2.375 C 10.265625 -2.375 11.472656 -3.332031 11.921875 -5.25 L 12.1875 -5.25 L 14.390625 -4.09375 C 13.972656 -2.65625 13.257812 -1.578125 12.25 -0.859375 C 11.25 -0.140625 9.929688 0.21875 8.296875 0.21875 Z M 8.296875 0.21875 "/></g></g></g><g fill="#030712" fill-opacity="1"><g transform="translate(192.413244, 30.741753)"><g><path d="M 12.171875 -15.1875 L 12.171875 -12.65625 L 7.78125 -12.65625 L 7.78125 0 L 4.796875 0 L 4.796875 -12.65625 L 0.421875 -12.65625 L 0.421875 -15.1875 Z M 12.171875 -15.1875 "/></g></g></g><g fill="#030712" fill-opacity="1"><g transform="translate(204.988803, 30.741753)"><g><path d="M 11.78125 -9.46875 L 11.78125 -15.1875 L 14.765625 -15.1875 L 14.765625 0 L 11.78125 0 L 11.78125 -6.921875 L 4.96875 -6.921875 L 4.96875 0 L 1.96875 0 L 1.96875 -15.1875 L 4.96875 -15.1875 L 4.96875 -9.46875 Z M 11.78125 -9.46875 "/></g></g></g><g fill="#030712" fill-opacity="1"><g transform="translate(221.725088, 30.741753)"><g><path d="M 8.046875 0.21875 C 5.953125 0.21875 4.398438 -0.273438 3.390625 -1.265625 C 2.378906 -2.265625 1.875 -3.738281 1.875 -5.6875 L 1.875 -15.1875 L 4.8125 -15.1875 L 4.8125 -5.71875 C 4.8125 -4.601562 5.078125 -3.769531 5.609375 -3.21875 C 6.148438 -2.664062 6.960938 -2.390625 8.046875 -2.390625 C 10.203125 -2.390625 11.28125 -3.5 11.28125 -5.71875 L 11.28125 -15.1875 L 14.21875 -15.1875 L 14.21875 -5.6875 C 14.21875 -3.738281 13.710938 -2.265625 12.703125 -1.265625 C 11.691406 -0.273438 10.140625 0.21875 8.046875 0.21875 Z M 8.046875 0.21875 "/></g></g></g><g fill="#030712" fill-opacity="1"><g transform="translate(237.807693, 30.741753)"><g><path d="M 1.96875 0 L 1.96875 -15.1875 L 8.453125 -15.1875 C 9.390625 -15.1875 10.179688 -15.035156 10.828125 -14.734375 C 11.472656 -14.441406 11.960938 -14.023438 12.296875 -13.484375 C 12.628906 -12.941406 12.796875 -12.300781 12.796875 -11.5625 C 12.796875 -10.882812 12.628906 -10.289062 12.296875 -9.78125 C 11.972656 -9.269531 11.507812 -8.859375 10.90625 -8.546875 L 10.90625 -8.328125 C 11.851562 -8.078125 12.585938 -7.625 13.109375 -6.96875 C 13.628906 -6.3125 13.890625 -5.503906 13.890625 -4.546875 C 13.890625 -3.097656 13.453125 -1.976562 12.578125 -1.1875 C 11.703125 -0.394531 10.40625 0 8.6875 0 Z M 7.828125 -9.125 C 9.222656 -9.125 9.921875 -9.753906 9.921875 -11.015625 C 9.921875 -11.660156 9.75 -12.140625 9.40625 -12.453125 C 9.0625 -12.765625 8.535156 -12.921875 7.828125 -12.921875 L 4.96875 -12.921875 L 4.96875 -9.125 Z M 8.375 -2.375 C 10.03125 -2.375 10.859375 -3.125 10.859375 -4.625 C 10.859375 -6.132812 10.03125 -6.890625 8.375 -6.890625 L 4.96875 -6.890625 L 4.96875 -2.375 Z M 8.375 -2.375 "/></g></g></g><path fill="#1e40af" d="M 31.710938 25.824219 C 31.710938 23.859375 30.113281 22.261719 28.148438 22.261719 C 26.183594 22.261719 24.585938 23.859375 24.585938 25.824219 C 24.585938 27.789062 26.183594 29.386719 28.148438 29.386719 C 30.113281 29.386719 31.710938 27.789062 31.710938 25.824219 Z M 28.148438 28.4375 C 26.707031 28.4375 25.535156 27.265625 25.535156 25.824219 C 25.535156 24.382812 26.707031 23.210938 28.148438 23.210938 C 29.589844 23.210938 30.761719 24.382812 30.761719 25.824219 C 30.761719 27.265625 29.589844 28.4375 28.148438 28.4375 Z M 28.148438 28.4375 " fill-opacity="1" fill-rule="nonzero"/><path fill="#1e40af" d="M 26.574219 19.449219 L 27.761719 21.113281 C 27.851562 21.238281 27.996094 21.308594 28.148438 21.308594 C 28.300781 21.308594 28.445312 21.238281 28.535156 21.113281 L 29.722656 19.449219 C 29.875 19.238281 29.824219 18.941406 29.613281 18.789062 C 29.398438 18.636719 29.101562 18.683594 28.949219 18.898438 L 28.625 19.355469 L 28.625 14.898438 C 28.625 14.636719 28.410156 14.421875 28.148438 14.421875 C 27.886719 14.421875 27.675781 14.636719 27.675781 14.898438 L 27.675781 19.355469 L 27.347656 18.898438 C 27.195312 18.683594 26.898438 18.636719 26.6875 18.789062 C 26.472656 18.941406 26.421875 19.238281 26.574219 19.449219 Z M 26.574219 19.449219 " fill-opacity="1" fill-rule="nonzero"/><g clip-path="url(#5aae7f4626)"><path fill="#1e40af" d="M 28.148438 13.472656 C 28.9375 13.472656 29.574219 12.835938 29.574219 12.046875 C 29.574219 11.261719 28.9375 10.621094 28.148438 10.621094 C 27.363281 10.621094 26.722656 11.261719 26.722656 12.046875 C 26.722656 12.835938 27.363281 13.472656 28.148438 13.472656 Z M 28.148438 11.570312 C 28.410156 11.570312 28.625 11.785156 28.625 12.046875 C 28.625 12.308594 28.410156 12.523438 28.148438 12.523438 C 27.886719 12.523438 27.675781 12.308594 27.675781 12.046875 C 27.675781 11.785156 27.886719 11.570312 28.148438 11.570312 Z M 28.148438 11.570312 " fill-opacity="1" fill-rule="nonzero"/></g><path fill="#1e40af" d="M 29.722656 32.195312 L 28.535156 30.535156 C 28.445312 30.410156 28.300781 30.335938 28.148438 30.335938 C 27.996094 30.335938 27.851562 30.410156 27.761719 30.535156 L 26.574219 32.195312 C 26.421875 32.410156 26.472656 32.707031 26.6875 32.859375 C 26.898438 33.011719 27.195312 32.960938 27.347656 32.75 L 27.675781 32.292969 L 27.675781 36.75 C 27.675781 37.011719 27.886719 37.222656 28.148438 37.222656 C 28.410156 37.222656 28.625 37.011719 28.625 36.75 L 28.625 32.292969 L 28.949219 32.75 C 29.042969 32.878906 29.1875 32.945312 29.335938 32.945312 C 29.433594 32.945312 29.527344 32.917969 29.613281 32.859375 C 29.824219 32.707031 29.875 32.410156 29.722656 32.195312 Z M 29.722656 32.195312 " fill-opacity="1" fill-rule="nonzero"/><g clip-path="url(#176fd5d3bb)"><path fill="#1e40af" d="M 28.148438 38.175781 C 27.363281 38.175781 26.722656 38.8125 26.722656 39.601562 C 26.722656 40.386719 27.363281 41.023438 28.148438 41.023438 C 28.9375 41.023438 29.574219 40.386719 29.574219 39.601562 C 29.574219 38.8125 28.9375 38.175781 28.148438 38.175781 Z M 28.148438 40.074219 C 27.886719 40.074219 27.675781 39.863281 27.675781 39.601562 C 27.675781 39.339844 27.886719 39.125 28.148438 39.125 C 28.410156 39.125 28.625 39.339844 28.625 39.601562 C 28.625 39.863281 28.410156 40.074219 28.148438 40.074219 Z M 28.148438 40.074219 " fill-opacity="1" fill-rule="nonzero"/></g><path fill="#1e40af" d="M 39.074219 25.347656 L 34.617188 25.347656 L 35.074219 25.023438 C 35.289062 24.871094 35.335938 24.574219 35.183594 24.359375 C 35.03125 24.148438 34.734375 24.097656 34.523438 24.25 L 32.859375 25.4375 C 32.738281 25.527344 32.664062 25.671875 32.664062 25.824219 C 32.664062 25.976562 32.738281 26.121094 32.859375 26.210938 L 34.523438 27.398438 C 34.605469 27.457031 34.703125 27.484375 34.796875 27.484375 C 34.945312 27.484375 35.089844 27.417969 35.183594 27.285156 C 35.335938 27.074219 35.289062 26.777344 35.074219 26.625 L 34.617188 26.296875 L 39.074219 26.296875 C 39.335938 26.296875 39.550781 26.085938 39.550781 25.824219 C 39.550781 25.5625 39.335938 25.347656 39.074219 25.347656 Z M 39.074219 25.347656 " fill-opacity="1" fill-rule="nonzero"/><g clip-path="url(#6a14f6a60f)"><path fill="#1e40af" d="M 41.925781 24.398438 C 41.140625 24.398438 40.5 25.035156 40.5 25.824219 C 40.5 26.609375 41.140625 27.25 41.925781 27.25 C 42.710938 27.25 43.351562 26.609375 43.351562 25.824219 C 43.351562 25.035156 42.710938 24.398438 41.925781 24.398438 Z M 41.925781 26.296875 C 41.664062 26.296875 41.449219 26.085938 41.449219 25.824219 C 41.449219 25.5625 41.664062 25.347656 41.925781 25.347656 C 42.1875 25.347656 42.402344 25.5625 42.402344 25.824219 C 42.402344 26.085938 42.1875 26.296875 41.925781 26.296875 Z M 41.925781 26.296875 " fill-opacity="1" fill-rule="nonzero"/></g><path fill="#1e40af" d="M 21.679688 26.296875 L 21.222656 26.625 C 21.011719 26.777344 20.960938 27.074219 21.113281 27.285156 C 21.207031 27.417969 21.351562 27.484375 21.5 27.484375 C 21.597656 27.484375 21.691406 27.457031 21.777344 27.398438 L 23.4375 26.210938 C 23.5625 26.121094 23.636719 25.976562 23.636719 25.824219 C 23.636719 25.671875 23.5625 25.527344 23.4375 25.4375 L 21.777344 24.25 C 21.5625 24.097656 21.265625 24.148438 21.113281 24.359375 C 20.960938 24.574219 21.011719 24.871094 21.222656 25.023438 L 21.679688 25.347656 L 17.222656 25.347656 C 16.960938 25.347656 16.75 25.5625 16.75 25.824219 C 16.75 26.085938 16.960938 26.296875 17.222656 26.296875 Z M 21.679688 26.296875 " fill-opacity="1" fill-rule="nonzero"/><g clip-path="url(#b82044b3a1)"><path fill="#1e40af" d="M 14.371094 24.398438 C 13.585938 24.398438 12.949219 25.035156 12.949219 25.824219 C 12.949219 26.609375 13.585938 27.25 14.371094 27.25 C 15.160156 27.25 15.796875 26.609375 15.796875 25.824219 C 15.796875 25.035156 15.160156 24.398438 14.371094 24.398438 Z M 14.371094 26.296875 C 14.109375 26.296875 13.898438 26.085938 13.898438 25.824219 C 13.898438 25.5625 14.109375 25.347656 14.371094 25.347656 C 14.636719 25.347656 14.847656 25.5625 14.847656 25.824219 C 14.847656 26.085938 14.636719 26.296875 14.371094 26.296875 Z M 14.371094 26.296875 " fill-opacity="1" fill-rule="nonzero"/></g><path fill="#1e40af" d="M 34.160156 29.761719 C 34.203125 29.503906 34.027344 29.261719 33.769531 29.21875 L 31.753906 28.882812 C 31.601562 28.855469 31.449219 28.90625 31.339844 29.015625 C 31.230469 29.121094 31.183594 29.277344 31.207031 29.429688 L 31.542969 31.441406 C 31.582031 31.675781 31.78125 31.839844 32.011719 31.839844 C 32.035156 31.839844 32.0625 31.835938 32.089844 31.832031 C 32.347656 31.789062 32.523438 31.542969 32.480469 31.285156 L 32.386719 30.734375 L 35.539062 33.886719 C 35.632812 33.976562 35.753906 34.023438 35.875 34.023438 C 35.996094 34.023438 36.117188 33.976562 36.210938 33.886719 C 36.398438 33.699219 36.398438 33.398438 36.210938 33.214844 L 33.058594 30.0625 L 33.613281 30.152344 C 33.871094 30.195312 34.117188 30.023438 34.160156 29.761719 Z M 34.160156 29.761719 " fill-opacity="1" fill-rule="nonzero"/><path fill="#1e40af" d="M 37.890625 34.140625 C 37.527344 34.140625 37.160156 34.277344 36.882812 34.558594 C 36.328125 35.113281 36.328125 36.015625 36.882812 36.574219 C 37.160156 36.851562 37.527344 36.988281 37.890625 36.988281 C 38.253906 36.988281 38.621094 36.851562 38.898438 36.574219 C 39.453125 36.015625 39.453125 35.113281 38.898438 34.558594 C 38.621094 34.277344 38.253906 34.140625 37.890625 34.140625 Z M 38.226562 35.902344 C 38.105469 36.023438 37.964844 36.039062 37.890625 36.039062 C 37.816406 36.039062 37.675781 36.023438 37.554688 35.902344 C 37.433594 35.78125 37.414062 35.636719 37.414062 35.566406 C 37.414062 35.492188 37.433594 35.351562 37.554688 35.230469 C 37.675781 35.109375 37.816406 35.089844 37.890625 35.089844 C 37.964844 35.089844 38.105469 35.109375 38.226562 35.230469 C 38.347656 35.351562 38.367188 35.492188 38.367188 35.566406 C 38.367188 35.636719 38.347656 35.78125 38.226562 35.902344 Z M 38.226562 35.902344 " fill-opacity="1" fill-rule="nonzero"/><path fill="#1e40af" d="M 22.140625 21.882812 C 22.097656 22.140625 22.273438 22.386719 22.53125 22.429688 L 24.542969 22.765625 C 24.570312 22.769531 24.597656 22.769531 24.621094 22.769531 C 24.746094 22.769531 24.867188 22.722656 24.957031 22.632812 C 25.066406 22.523438 25.117188 22.371094 25.089844 22.21875 L 24.753906 20.207031 C 24.710938 19.945312 24.46875 19.769531 24.210938 19.816406 C 23.949219 19.859375 23.777344 20.101562 23.820312 20.359375 L 23.910156 20.914062 L 20.757812 17.761719 C 20.574219 17.574219 20.273438 17.574219 20.085938 17.761719 C 19.902344 17.945312 19.902344 18.246094 20.085938 18.433594 L 23.238281 21.585938 L 22.6875 21.492188 C 22.429688 21.449219 22.183594 21.625 22.140625 21.882812 Z M 22.140625 21.882812 " fill-opacity="1" fill-rule="nonzero"/><path fill="#1e40af" d="M 17.398438 15.074219 C 16.84375 15.628906 16.84375 16.535156 17.398438 17.089844 C 17.679688 17.367188 18.042969 17.507812 18.40625 17.507812 C 18.773438 17.507812 19.136719 17.367188 19.414062 17.089844 C 19.972656 16.535156 19.972656 15.628906 19.414062 15.074219 C 19.136719 14.796875 18.773438 14.65625 18.40625 14.65625 C 18.042969 14.65625 17.679688 14.796875 17.398438 15.074219 Z M 18.882812 16.082031 C 18.882812 16.15625 18.863281 16.296875 18.742188 16.417969 C 18.621094 16.539062 18.480469 16.558594 18.40625 16.558594 C 18.335938 16.558594 18.191406 16.539062 18.070312 16.417969 C 17.949219 16.296875 17.933594 16.15625 17.933594 16.082031 C 17.933594 16.007812 17.949219 15.867188 18.070312 15.746094 C 18.191406 15.625 18.335938 15.605469 18.40625 15.605469 C 18.480469 15.605469 18.621094 15.625 18.742188 15.746094 C 18.863281 15.867188 18.882812 16.007812 18.882812 16.082031 Z M 18.882812 16.082031 " fill-opacity="1" fill-rule="nonzero"/><path fill="#1e40af" d="M 24.210938 31.832031 C 24.234375 31.835938 24.261719 31.839844 24.289062 31.839844 C 24.515625 31.839844 24.71875 31.675781 24.753906 31.441406 L 25.089844 29.429688 C 25.117188 29.277344 25.066406 29.121094 24.957031 29.015625 C 24.851562 28.90625 24.695312 28.855469 24.542969 28.882812 L 22.53125 29.21875 C 22.273438 29.261719 22.097656 29.503906 22.140625 29.761719 C 22.183594 30.023438 22.429688 30.195312 22.6875 30.152344 L 23.238281 30.0625 L 20.085938 33.214844 C 19.902344 33.398438 19.902344 33.699219 20.085938 33.886719 C 20.179688 33.976562 20.300781 34.023438 20.421875 34.023438 C 20.542969 34.023438 20.667969 33.976562 20.757812 33.886719 L 23.910156 30.734375 L 23.820312 31.285156 C 23.777344 31.542969 23.949219 31.789062 24.210938 31.832031 Z M 24.210938 31.832031 " fill-opacity="1" fill-rule="nonzero"/><path fill="#1e40af" d="M 19.414062 34.558594 C 19.136719 34.277344 18.773438 34.140625 18.40625 34.140625 C 18.042969 34.140625 17.679688 34.277344 17.398438 34.558594 C 16.84375 35.113281 16.84375 36.015625 17.398438 36.574219 C 17.679688 36.851562 18.042969 36.988281 18.40625 36.988281 C 18.773438 36.988281 19.136719 36.851562 19.414062 36.574219 C 19.972656 36.015625 19.972656 35.113281 19.414062 34.558594 Z M 18.742188 35.902344 C 18.621094 36.023438 18.480469 36.039062 18.40625 36.039062 C 18.335938 36.039062 18.191406 36.023438 18.070312 35.902344 C 17.949219 35.78125 17.933594 35.636719 17.933594 35.566406 C 17.933594 35.492188 17.949219 35.351562 18.070312 35.230469 C 18.191406 35.109375 18.335938 35.089844 18.40625 35.089844 C 18.480469 35.089844 18.621094 35.109375 18.742188 35.230469 C 18.863281 35.351562 18.882812 35.492188 18.882812 35.566406 C 18.882812 35.636719 18.863281 35.78125 18.742188 35.902344 Z M 18.742188 35.902344 " fill-opacity="1" fill-rule="nonzero"/><path fill="#1e40af" d="M 32.089844 19.8125 C 31.832031 19.769531 31.585938 19.945312 31.542969 20.203125 L 31.207031 22.21875 C 31.183594 22.371094 31.230469 22.523438 31.339844 22.632812 C 31.429688 22.722656 31.550781 22.769531 31.675781 22.769531 C 31.703125 22.769531 31.726562 22.769531 31.753906 22.765625 L 33.765625 22.429688 C 34.027344 22.386719 34.203125 22.140625 34.15625 21.882812 C 34.117188 21.625 33.871094 21.449219 33.613281 21.492188 L 33.058594 21.585938 L 36.210938 18.433594 C 36.398438 18.246094 36.398438 17.945312 36.210938 17.761719 C 36.027344 17.574219 35.726562 17.574219 35.539062 17.761719 L 32.386719 20.914062 L 32.480469 20.359375 C 32.523438 20.101562 32.347656 19.855469 32.089844 19.8125 Z M 32.089844 19.8125 " fill-opacity="1" fill-rule="nonzero"/><path fill="#1e40af" d="M 38.898438 17.089844 C 39.453125 16.535156 39.453125 15.628906 38.898438 15.074219 C 38.621094 14.796875 38.253906 14.65625 37.890625 14.65625 C 37.527344 14.65625 37.160156 14.796875 36.882812 15.074219 C 36.328125 15.628906 36.328125 16.535156 36.882812 17.089844 C 37.160156 17.367188 37.527344 17.507812 37.890625 17.507812 C 38.253906 17.507812 38.621094 17.367188 38.898438 17.089844 Z M 37.414062 16.082031 C 37.414062 16.007812 37.433594 15.867188 37.554688 15.746094 C 37.675781 15.625 37.816406 15.605469 37.890625 15.605469 C 37.964844 15.605469 38.105469 15.625 38.226562 15.746094 C 38.347656 15.867188 38.367188 16.007812 38.367188 16.082031 C 38.367188 16.15625 38.347656 16.296875 38.226562 16.417969 C 38.105469 16.539062 37.964844 16.558594 37.890625 16.558594 C 37.816406 16.558594 37.675781 16.539062 37.554688 16.417969 C 37.433594 16.296875 37.414062 16.15625 37.414062 16.082031 Z M 37.414062 16.082031 " fill-opacity="1" fill-rule="nonzero"/></svg>